{"title":"Scream of the Banshee 2011 DVDrip English Klam","uid":6576186,"size":1565050151,"categoryP":"video","categoryS":"movies","magnet":"?xt=urn:btih:5b4302fcc02c1180730df5eda0ddf7c61105cfe6&amp;dn=Scream+of+the+Banshee+2011+DVDrip+English+Klam&amp;tr=udp%3A%2F%2Ftracker.openbittorrent.com%3A80&amp;tr=udp%3A%2F%2Fopen.demonii.com%3A1337&amp;tr=udp%3A%2F%2Ftracker.coppersurfer.tk%3A6969&amp;tr=udp%3A%2F%2Fexodus.desync.com%3A6969","seeders":1,"leechers":1,"uploader":"Klambake","files":-1,"time":1312204425,"description":"With: Lauren Holly, Lance Henriksen and Edrick Browne\n\nWanneer een universiteitsprofessor een vreemde, sierlijke doos in de kelderverdieping van een universiteit ontdekt en opent, horen zij en haar studenten een ontstellende schreeuw afkomstig van een bloeddorstige geest. Bij alles wat het hoort begint het op verraderlijke wijze te schreeuwen en te intimideren. Aan het Ierse folkloristsche gezegde dat iedereen die de schreeuw van de &quot;Banshee&quot; hoort spoedig zal sterven twijfelt niemand meer als er ook daadwerkelijk doden vallen.\n\nAn archeology professor unearths a dangerous artifact, unwittingly releasing a creature that is able to kill with the power of its bone-splitting scream. \n\n------------------ Dutch Friends ------------------\nYou can find my Friends at: http://www.Film-Test.nl \n------ They got my dutchs subs ---- and more ------\n\nGeneral:\n\nComplete name                    : Scream of the Banshee\\Scream of the Banshee.avi\nFormat                           : AVI\nFormat/Info                      : Audio Video Interleave\nFile size                        : 1.46 GiB\nDuration                         : 1h 30mn\nOverall bit rate                 : 2 315 Kbps\n\nVideo:\n\nFormat                           : MPEG-4 Visual\nFormat profile                   : Simple@L3\nFormat settings, BVOP            : No\nFormat settings, QPel            : No\nFormat settings, GMC             : No warppoints\nFormat settings, Matrix          : Default (H.263)\nCodec ID                         : XVID\nCodec ID/Hint                    : XviD\nDuration                         : 1h 30mn\nBit rate                         : 1 857 Kbps\nWidth                            : 652 pixels\nHeight                           : 352 pixels\nDisplay aspect ratio             : 1.852\nFrame rate                       : 23.976 fps\nColor space                      : YUV\nChroma subsampling               : 4:2:0\nBit depth                        : 8 bits\nScan type                        : Progressive\nBits/(Pixel*Frame)               : 0.337\nStream size                      : 1.17 GiB (80%)\nWriting library                  : XviD 1.1.2 (UTC 2006-11-01)\n\nAudio:\n\nFormat                           : AC-3\nFormat/Info                      : Audio Coding 3\nMode extension                   : CM (complete main)\nCodec ID                         : 2000\nDuration                         : 1h 30mn\nBit rate mode                    : Constant\nBit rate                         : 448 Kbps\nChannel(s)                       : 6 channels\nChannel positions                : Front: L C R, Side: L R, LFE\nSampling rate                    : 48.0 KHz\nBit depth                        : 16 bits\nStream size                      : 289 MiB (19%)\nAlignment                        : Aligned on interleaves\nInterleave, duration             : 32 ms (0.77 video frame)\nInterleave, preload duration     : 2816 ms\n\n\n","torrent":{"xt":"urn:btih:5b4302fcc02c1180730df5eda0ddf7c61105cfe6","amp;dn":"Scream+of+the+Banshee+2011+DVDrip+English+Klam","amp;tr":["udp%3A%2F%2Ftracker.openbittorrent.com%3A80","udp%3A%2F%2Fopen.demonii.com%3A1337","udp%3A%2F%2Ftracker.coppersurfer.tk%3A6969","udp%3A%2F%2Fexodus.desync.com%3A6969"],"infoHash":"5b4302fcc02c1180730df5eda0ddf7c61105cfe6","infoHashBuffer":{"type":"Buffer","data":[91,67,2,252,192,44,17,128,115,13,245,237,160,221,247,198,17,5,207,230]},"announce":[],"urlList":[]}}